<svg>

<svg id='eye' width="19" height="19" viewBox="0 0 19 19" fill="none" xmlns="http://www.w3.org/2000/svg">
<path d="M1.91593 10.0646C1.80812 9.8939 1.75421 9.80854 1.72403 9.67688C1.70136 9.57799 1.70136 9.42203 1.72403 9.32314C1.75421 9.19148 1.80812 9.10613 1.91593 8.93541C2.80688 7.52468 5.45886 3.95834 9.50032 3.95834C13.5418 3.95834 16.1938 7.52468 17.0847 8.93541C17.1925 9.10613 17.2464 9.19148 17.2766 9.32314C17.2993 9.42203 17.2993 9.57799 17.2766 9.67688C17.2464 9.80854 17.1925 9.8939 17.0847 10.0646C16.1938 11.4753 13.5418 15.0417 9.50032 15.0417C5.45886 15.0417 2.80688 11.4753 1.91593 10.0646Z" stroke="#A3A9B6" stroke-width="1.5" stroke-linecap="round" stroke-linejoin="round"/>
<path d="M9.50032 11.875C10.812 11.875 11.8753 10.8117 11.8753 9.50001C11.8753 8.18833 10.812 7.12501 9.50032 7.12501C8.18864 7.12501 7.12532 8.18833 7.12532 9.50001C7.12532 10.8117 8.18864 11.875 9.50032 11.875Z" stroke="#A3A9B6" stroke-width="1.5" stroke-linecap="round" stroke-linejoin="round"/>
</svg>

<svg id='eye-off' width="19" height="19" viewBox="0 0 19 19" fill="none" xmlns="http://www.w3.org/2000/svg">
<path d="M8.50483 4.03142C8.82657 3.98385 9.15848 3.95833 9.50033 3.95833C13.5418 3.95833 16.1938 7.52467 17.0847 8.9354C17.1926 9.10615 17.2465 9.19152 17.2766 9.3232C17.2993 9.42209 17.2993 9.57811 17.2766 9.677C17.2464 9.80867 17.1921 9.89461 17.0835 10.0665C16.8461 10.4422 16.4842 10.9702 16.0047 11.5429M5.32342 5.31607C3.61178 6.47718 2.44977 8.09034 1.91671 8.93418C1.80839 9.10565 1.75423 9.19138 1.72404 9.32305C1.70137 9.42194 1.70136 9.57793 1.72402 9.67683C1.7542 9.8085 1.80811 9.89386 1.91594 10.0646C2.80689 11.4753 5.45887 15.0417 9.50033 15.0417C11.1299 15.0417 12.5336 14.4618 13.687 13.6773M2.37533 2.375L16.6253 16.625M7.82095 7.82062C7.39116 8.25041 7.12533 8.84416 7.12533 9.5C7.12533 10.8117 8.18865 11.875 9.50033 11.875C10.1562 11.875 10.7499 11.6092 11.1797 11.1794" stroke="#A3A9B6" stroke-width="1.5" stroke-linecap="round" stroke-linejoin="round"/>
</svg>